<?xml version="1.0" encoding="utf-8"?>
<!-- Generator: Adobe Illustrator 19.1.0, SVG Export Plug-In . SVG Version: 6.00 Build 0)  -->
<!DOCTYPE svg PUBLIC "-//W3C//DTD SVG 1.1//EN" "http://www.w3.org/Graphics/SVG/1.1/DTD/svg11.dtd">
<svg version="1.1" id="Layer_1" xmlns="http://www.w3.org/2000/svg" xmlns:xlink="http://www.w3.org/1999/xlink" x="0px" y="0px"
	 viewBox="-305 316.5 160 160" style="enable-background:new -305 316.5 160 160;" xml:space="preserve">
<title>Artist Icon</title>
<path fill="#fff" d="M-212,407.5l-6.4-3.7c-0.6-0.4-1.1-1-1.2-1.7c-0.1-0.7,0.1-1.5,0.6-2l5.2-6.1c3.3-3.8,5.1-8.7,5.1-13.8v-2
	c0-5.8-2.4-11.5-6.7-15.5c-4.3-4.1-10-6.1-15.9-5.7c-11.1,0.7-19.8,10.3-19.8,21.9v1.3c0,5.1,1.8,10,5.1,13.8l5.2,6.1
	c0.5,0.6,0.7,1.3,0.6,2c-0.1,0.7-0.6,1.3-1.2,1.7l-12.7,7.3c-6.6,3.8-10.8,10.9-10.8,18.5v5.9h3v-5.9c0-6.6,3.5-12.7,9.3-15.9
	l12.7-7.3c1.4-0.8,2.4-2.2,2.7-3.8c0.3-1.6-0.2-3.2-1.2-4.5l-5.2-6.1c-2.8-3.3-4.4-7.5-4.4-11.9v-1.3c0-10,7.5-18.3,17.1-18.9
	c5.1-0.3,10,1.4,13.7,4.9c3.7,3.5,5.8,8.2,5.8,13.3v2c0,4.4-1.6,8.6-4.4,11.9l-5.2,6.1c-1.1,1.2-1.5,2.9-1.2,4.5
	c0.3,1.6,1.2,3,2.6,3.8l4.5,2.6C-214.2,408.4-213.1,407.9-212,407.5L-212,407.5z M-198.2,394.1v22.7c-2-2.2-4.9-3.6-8.2-3.6
	c-6.1,0-11.1,5-11.1,11.1c0,6.1,5,11.1,11.1,11.1c6.1,0,11.1-5,11.1-11.1v-25.1l8.7,5l1.5-2.6L-198.2,394.1L-198.2,394.1z
	 M-206.3,432.6c-4.5,0-8.2-3.7-8.2-8.2c0-4.5,3.7-8.2,8.2-8.2c4.5,0,8.2,3.7,8.2,8.2C-198.2,428.9-201.8,432.6-206.3,432.6
	L-206.3,432.6z"/>
</svg>
